<svg width="168" height="14" viewBox="0 0 168 14" fill="none" xmlns="http://www.w3.org/2000/svg">
<g clip-path="url(#clip0_97_38)">
<path d="M13.375 7C13.375 3.47918 10.5208 0.625 7 0.625C3.47918 0.625 0.625 3.47918 0.625 7C0.625 10.5208 3.47918 13.375 7 13.375C10.5208 13.375 13.375 10.5208 13.375 7Z" fill="black" stroke="#808080"/>
<path d="M10 7C10 5.34315 8.65685 4 7 4C5.34315 4 4 5.34315 4 7C4 8.65685 5.34315 10 7 10C8.65685 10 10 8.65685 10 7Z" fill="#808080"/>
<path d="M27.375 7C27.375 3.47918 24.5208 0.625 21 0.625C17.4792 0.625 14.625 3.47918 14.625 7C14.625 10.5208 17.4792 13.375 21 13.375C24.5208 13.375 27.375 10.5208 27.375 7Z" fill="black" stroke="#808080"/>
<path d="M24 7C24 5.34315 22.6569 4 21 4C19.3431 4 18 5.34315 18 7C18 8.65685 19.3431 10 21 10C22.6569 10 24 8.65685 24 7Z" fill="#808080"/>
<path opacity="0.25" d="M41.375 7C41.375 3.47918 38.5208 0.625 35 0.625C31.4792 0.625 28.625 3.47918 28.625 7C28.625 10.5208 31.4792 13.375 35 13.375C38.5208 13.375 41.375 10.5208 41.375 7Z" fill="black" stroke="#808080"/>
<path d="M55.375 7C55.375 3.47918 52.5208 0.625 49 0.625C45.4792 0.625 42.625 3.47918 42.625 7C42.625 10.5208 45.4792 13.375 49 13.375C52.5208 13.375 55.375 10.5208 55.375 7Z" fill="black" stroke="#808080"/>
<path d="M52 7C52 5.34315 50.6569 4 49 4C47.3431 4 46 5.34315 46 7C46 8.65685 47.3431 10 49 10C50.6569 10 52 8.65685 52 7Z" fill="#808080"/>
<path d="M69.375 7C69.375 3.47918 66.5208 0.625 63 0.625C59.4792 0.625 56.625 3.47918 56.625 7C56.625 10.5208 59.4792 13.375 63 13.375C66.5208 13.375 69.375 10.5208 69.375 7Z" fill="black" stroke="#808080"/>
<path d="M83.375 7C83.375 3.47918 80.5208 0.625 77 0.625C73.4792 0.625 70.625 3.47918 70.625 7C70.625 10.5208 73.4792 13.375 77 13.375C80.5208 13.375 83.375 10.5208 83.375 7Z" fill="black" stroke="#808080"/>
<path opacity="0.25" d="M97.375 7C97.375 3.47918 94.5208 0.625 91 0.625C87.4792 0.625 84.625 3.47918 84.625 7C84.625 10.5208 87.4792 13.375 91 13.375C94.5208 13.375 97.375 10.5208 97.375 7Z" fill="#808080" stroke="#808080" stroke-width="1.25"/>
<path d="M111.375 7C111.375 3.47918 108.521 0.625 105 0.625C101.479 0.625 98.625 3.47918 98.625 7C98.625 10.5208 101.479 13.375 105 13.375C108.521 13.375 111.375 10.5208 111.375 7Z" fill="black" stroke="#808080"/>
<path d="M125.375 7C125.375 3.47918 122.521 0.625 119 0.625C115.479 0.625 112.625 3.47918 112.625 7C112.625 10.5208 115.479 13.375 119 13.375C122.521 13.375 125.375 10.5208 125.375 7Z" fill="#808080" stroke="#808080" stroke-width="1.25"/>
<path d="M139.375 7C139.375 3.47918 136.521 0.625 133 0.625C129.479 0.625 126.625 3.47918 126.625 7C126.625 10.5208 129.479 13.375 133 13.375C136.521 13.375 139.375 10.5208 139.375 7Z" fill="#808080" stroke="#808080" stroke-width="1.25"/>
<path opacity="0.25" d="M153.375 7C153.375 3.47918 150.521 0.625 147 0.625C143.479 0.625 140.625 3.47918 140.625 7C140.625 10.5208 143.479 13.375 147 13.375C150.521 13.375 153.375 10.5208 153.375 7Z" fill="#808080" stroke="#808080" stroke-width="1.25"/>
<path d="M167.375 7C167.375 3.47918 164.521 0.625 161 0.625C157.479 0.625 154.625 3.47918 154.625 7C154.625 10.5208 157.479 13.375 161 13.375C164.521 13.375 167.375 10.5208 167.375 7Z" fill="#808080" stroke="#808080" stroke-width="1.25"/>
</g>
<defs>
<clipPath id="clip0_97_38">
<rect width="168" height="14" fill="white"/>
</clipPath>
</defs>
</svg>
